<?xml version="1.0" encoding="utf-8"?>
<!-- Generator: Adobe Illustrator 25.4.1, SVG Export Plug-In . SVG Version: 6.00 Build 0)  -->
<svg version="1.1" id="Layer_1" xmlns="http://www.w3.org/2000/svg" xmlns:xlink="http://www.w3.org/1999/xlink" x="0px" y="0px"
	 viewBox="0 0 512 512" style="enable-background:new 0 0 512 512;" xml:space="preserve">
<style type="text/css">
	.st0{fill:#000001;}
	.st1{fill:#040404;}
	.st2{fill:#B3A784;}
	.st3{fill:#B4A884;}
	.st4{fill:#ABA07F;}
	.st5{fill:#AAA17F;}
	.st6{fill:#B2A783;}
	.st7{fill:#141312;}
	.st8{fill:#121211;}
	.st9{fill:#0B0A09;}
	.st10{fill:#0E0E0D;}
	.st11{fill:#C3BC9E;}
	.st12{fill:#B1A57F;}
	.st13{fill:#DDDAC7;}
	.st14{fill:#CFC9B1;}
	.st15{fill:#877857;}
	.st16{fill:#AEA481;}
	.st17{fill:#9B8C6A;}
	.st18{fill:#9A8B6A;}
	.st19{fill:#C2BB9D;}
	.st20{fill:#A19171;}
	.st21{fill:#877958;}
	.st22{fill:#9B8C6B;}
	.st23{fill:#9B8D6B;}
	.st24{fill:#9B8D6A;}
	.st25{fill:#A19170;}
	.st26{fill:#9C8D6B;}
	.st27{fill:#B1A883;}
	.st28{fill:#C4BD9F;}
	.st29{fill:#C4BDA0;}
	.st30{fill:#EBE5D8;}
	.st31{fill:#84AC4C;}
	.st32{fill:#BD4B50;}
	.st33{fill:#B0A682;}
	.st34{fill:#DBD7C4;}
	.st35{fill:#B1A784;}
	.st36{fill:#B3AA87;}
	.st37{fill:#B3A986;}
	.st38{fill:#897A59;}
	.st39{fill:#DAD6C3;}
	.st40{fill:#DCD9C5;}
	.st41{fill:#DDDAC9;}
	.st42{fill:#F1ECE6;}
	.st43{fill:#EFEAE1;}
	.st44{fill:#EFEDE0;}
	.st45{fill:#423F2E;}
	.st46{fill:#75684C;}
	.st47{fill:#978562;}
	.st48{fill:#DCD9C6;}
	.st49{fill:#C3BC9F;}
	.st50{fill:#A19467;}
	.st51{fill:#B4A885;}
	.st52{fill:#E9E3D6;}
	.st53{fill:#C4BC9F;}
	.st54{fill:#020201;}
	.st55{fill:#6F6248;}
	.st56{fill:#72654A;}
	.st57{fill:#786A4D;}
	.st58{fill:#76684C;}
	.st59{fill:#010101;}
	.st60{fill:#978A66;}
	.st61{fill:#958562;}
	.st62{fill:#978864;}
	.st63{fill:#595240;}
	.st64{fill:#A29567;}
	.st65{fill:#AFA581;}
	.st66{fill:#A39A70;}
	.st67{fill:#948463;}
	.st68{fill:#A1C4D9;}
	.st69{fill:#E3E9E9;}
	.st70{fill:#815649;}
	.st71{fill:#A2B34C;}
	.st72{fill:#8BC24D;}
	.st73{fill:#C94E5C;}
	.st74{fill:#C94D5B;}
	.st75{fill:#ECD07E;}
	.st76{fill:#E2E8E9;}
	.st77{fill:#EBD07E;}
	.st78{fill:#EBD07F;}
	.st79{fill:#D6E2E7;}
	.st80{fill:#DEE7E9;}
	.st81{fill:#DDE6E5;}
	.st82{fill:#795B3E;}
	.st83{fill:#795B3F;}
</style>
<path class="st0" d="M394.93,363.84c32.3,0.06,64.6,0.13,96.9,0.19c6.52,0.01,6.52,0,6.52,6.64c0,35.14-0.09,70.28,0.11,105.42
	c0.03,4.6-0.75,6.62-5.83,6.05c-4.44-0.5-8.98,0.02-13.48-0.12c-2.35-0.07-3.26,0.67-3.17,3.11c0.15,4.32-0.14,8.67,0.09,12.99
	c0.15,2.93-0.94,3.92-3.7,3.54c-0.65-0.09-1.33-0.01-2-0.01c-142.55,0-285.1-0.03-427.65,0.13c-4.97,0.01-6.17-1.35-5.87-6.05
	c0.28-4.39,2.05-10.12-0.81-12.93c-2.61-2.57-8.24-0.68-12.53-0.73c-9.07-0.1-9.08-0.03-9.08-9.15c0-34.31,0.09-68.62-0.11-102.92
	c-0.03-4.62,0.8-6.14,5.84-6.1c30.81,0.27,61.62,0.14,92.42,0.13c1.83,0,3.65-0.12,5.48-0.19c1.03-2.72,0.4-5.55,0.46-8.32
	c0.05-2.33-0.07-4.25,3.26-4.1c2.8,0.13,5.35-0.1,5.61,3.78c0.15,2.21-0.73,4.72,1.4,6.52c4.18,1.58,8.52,0.37,12.75,0.8
	c9.84-0.22,19.67-0.2,29.5-0.02c10.04-0.19,20.07-0.2,30.1-0.01c12.82-0.33,25.64-0.12,38.46-0.13
	c39.63-0.03,79.26-0.01,118.88-0.01c2,0,4-0.12,5.98,0.15c4.71-0.1,9.41-0.17,14.12,0.02c4.77-0.1,7.12,0.73,6.97-6.7
	c-0.07-3.81,2.25-4.39,5.58-4.42c3.8-0.03,3.19,2.29,3.31,4.6C394.59,358.6,393.87,361.28,394.93,363.84z"/>
<path d="M125.94,350.98c0.36-6.61,0.36-6.61,7.19-6.61c13.64-0.01,27.29-0.17,40.93,0.05c3.6,0.06,4.59-1.01,4.3-4.44
	c-0.3-3.64-0.35-7.35,0.03-10.97c0.39-3.76-1.18-4.27-4.47-4.26c-24.13,0.13-48.25-0.08-72.38,0.2c-4.61,0.05-5.79-1.31-5.34-5.57
	c0.35-3.29-0.16-6.67,0.13-9.97c0.3-3.42-0.71-4.51-4.3-4.47c-13.3,0.17-26.61-0.02-39.92-0.07c-0.68-2.2-1.13-4.38,0.37-6.45
	c2.51-1.29,5.22-0.82,7.86-0.82c126.52-0.02,253.05-0.03,379.57-0.01c5.16,0,10.31-0.44,15.47-0.2c5.96,0.29,6.61,1.18,5.46,7.44
	c-13.3,0.07-26.59,0.25-39.89,0.14c-3.28-0.03-4.66,0.53-4.57,4.24c0.12,5.09,2.33,12.08-0.99,14.78c-3.14,2.55-9.84,0.8-14.98,0.81
	c-20.45,0.03-40.91,0.1-61.36-0.07c-3.43-0.03-4.72,0.73-4.4,4.33c0.34,3.79,0.28,7.66,0.01,11.46c-0.22,3.08,0.75,3.94,3.85,3.91
	c13.8-0.17,27.6-0.07,41.4-0.07c6.74,0,6.74,0,7.27,6.6c-1.75,1.56-3.92,1.64-6.06,1.55c-5.76-0.26-11.53-0.06-17.29-0.12
	c-63.27-0.03-126.53-0.09-189.8,0.06c-13.81,0.03-27.63,0.08-41.44-0.08C130.31,352.34,127.89,352.73,125.94,350.98z"/>
<path class="st1" d="M52.09,17.14c-0.65-6.8-0.65-6.8,6.07-6.8c132.42,0,264.84,0,397.27,0c6.35,0,6.35,0,5.5,6.8
	c-0.22,0.19-0.44,0.38-0.65,0.58c-2.21,1.02-4.58,0.67-6.9,0.76c-2.74,0.19-5.48,0.07-8.22,0.08c-1.66,0.24-3.33,0.16-4.99,0.16
	c-122.25,0.01-244.49,0.01-366.74,0c-1.83,0-3.66,0.09-5.48-0.14c-2.75-0.03-5.5,0.11-8.25-0.08c-2.33-0.08-4.71,0.27-6.94-0.76
	C52.52,17.54,52.31,17.34,52.09,17.14z"/>
<path d="M475.83,24.12c0.06,1.82,0.18,3.65,0.18,5.47c0.01,85,0.01,170.01,0.01,255.01c0,7.34,0,7.34-7.09,7.45
	c-2.26-2.58-1.39-5.73-1.39-8.63c-0.05-82.46-0.04-164.92-0.04-247.38c0-1.67,0.01-3.33,0-5C467.43,23.41,468.19,22.78,475.83,24.12
	z"/>
<path d="M44.08,292.07c-7.07-0.12-7.07-0.12-7.07-7.47c0-85,0-170,0.01-254.99c0-1.82,0.11-3.65,0.17-5.47
	c7.38-1.31,8.34-0.61,8.34,5.94c-0.03,84.46,0,168.92-0.06,253.37C45.47,286.34,46.34,289.48,44.08,292.07z"/>
<path class="st2" d="M460.85,304.83c0.98-5.02-1.04-6.19-6.06-6.18c-127.5,0.18-254.99,0.17-382.49,0.2
	c-6.82,0-13.64,0.06-20.46,0.09c-0.18,0.48-0.47,0.58-0.88,0.25l0.16-0.23c-0.15-1.2,0.7-1.6,1.57-1.99
	c4.93-0.95,9.91-0.37,14.87-0.45c1.99-0.27,3.99-0.15,5.99-0.15c120.4-0.01,240.81,0,361.21-0.01c4.26,0,7.51-0.97,11.44-3.9
	c3.98-2.97,6.25-8.1,11.41-9.5c0.83-0.22,1.31-1.01,1.68-1.76c1.84-3.73,4.7-4.37,8.3-2.74c1.7,4.05,0.39,8.31,0.81,12.44
	c-0.04,0.89-0.49,1.74-1.32,1.8c-3.97,0.27-4.88,2.97-5.21,6.22C461.28,300.85,462.7,303.12,460.85,304.83z"/>
<path class="st3" d="M125.94,350.98c77.68-0.01,155.36-0.02,233.04-0.02c1.66,0,3.32,0.11,4.98,0.16c0.12,0.74-0.15,1.27-0.82,1.61
	c-1.86,0.92-3.88,0.84-5.87,0.84c-51.24,0.03-102.47,0.02-153.71,0.01c-0.67,0-1.33-0.05-1.98-0.14
	c-7.59,0.13-15.18-0.02-22.78,0.07c-5.62,0.07-5.72,0.18-6.25,5.74c-0.16,1.66-0.25,3.31-1.49,4.6c-10,0-20.01,0-30.01-0.01
	c-1.76-1.93-1.4-4.35-1.43-6.63c-0.06-4-2.81-3.83-5.54-3.82c-2.73,0-5.49-0.2-5.56,3.8c-0.04,2.27,0.33,4.7-1.43,6.63
	c-2.04-2.94-0.85-6.25-0.9-9.36c-0.05-3.13-1.83-2.82-3.86-2.91c-2.18-0.1-3.2,0.4-3.31,2.93c-0.14,3.11,1.17,6.42-0.92,9.34
	c0.02-1.83,0.04-3.65,0.04-5.48C118.13,350.47,118.12,350.47,125.94,350.98z"/>
<path class="st4" d="M467.9,291.78c-0.03-4.3-0.05-8.59-0.08-12.89c-1.5-1.61-1.48-3.65-1.48-5.63c0-9.12-0.18-18.25,0.08-27.37
	c-0.28-3.16-0.14-6.32-0.14-9.49c0.05-66.27-0.13-132.53,0.07-198.78c0.98-4.05-0.77-6.31-4.72-7.13c-2.04-1.77-2.21-4-1.55-6.42
	c0.24-0.57,0.6-1.05,1.08-1.44c2.67-1.26,5.28-1.38,7.78,0.44c2.26,0.57,4.86-1.03,6.89,1.05c-7.06-0.03-6.99-0.03-6.99,7.1
	c0,84.95-0.02,169.9-0.03,254.85c0,2,0.08,3.99,0.12,5.99c0,0,0.07-0.07,0.07-0.07C468.55,292.34,468.19,292.25,467.9,291.78z"/>
<path class="st5" d="M44.08,292.07c0.02-24.32,0.06-48.63,0.06-72.95c0.01-62.63,0.01-125.26,0.03-187.89c0-7.14,0.04-7.14-6.99-7.1
	c2.06-2.13,4.69-0.47,6.98-1.05c2.36-1.82,4.88-1.62,7.45-0.56c0.48,0.34,0.82,0.8,1.02,1.35c0.24,2.28-0.04,4.46-1.31,6.43
	c-3.58,1.06-5.69,3.1-4.69,7.18c0.19,68.76,0.05,137.52,0.08,206.27c0,0.67-0.07,1.33-0.13,1.99c0.15,10.93,0.22,21.87-0.02,32.8
	c-0.2,4.36,0.84,8.81-0.92,13.06c-0.43,0.59-0.97,0.72-1.62,0.4C44.01,291.99,44.08,292.07,44.08,292.07z"/>
<path class="st6" d="M363.96,351.9c0-0.26,0-0.52,0-0.77c7.75-0.05,15.5-0.11,23.24-0.16c7.67-0.46,7.67-0.46,7.68,6.93
	c0,1.98,0.04,3.96,0.06,5.95c-2.12-2.92-0.79-6.24-0.92-9.35c-0.11-2.53-1.14-3.04-3.31-2.95c-2.03,0.09-4.16-0.23-3.81,2.9
	c0.07,0.65,0.01,1.32,0.01,1.98c-0.05,7.87-0.05,7.87-7.95,7.44c-1.73-1.91-1.39-4.3-1.43-6.56c-0.05-2.66-1.27-3.84-3.91-3.89
	c-2.77-0.06-5.58,0.29-8.32-0.5C364.73,352.71,364.3,352.36,363.96,351.9z"/>
<path class="st7" d="M44.01,291.99c0.36-0.07,0.73-0.14,1.09-0.22c2.29-1.54,4.78-1.74,6.83,0.03c2.02,1.74,1.74,4.07,0.29,6.22
	c-0.37,0.31-0.74,0.63-1.1,0.94C45.69,299.76,43.15,297.61,44.01,291.99z"/>
<path class="st8" d="M467.9,291.78c0.36,0.07,0.73,0.14,1.09,0.21c0.85,5.62-1.66,7.79-7.12,6.93
	C459.99,292.48,460.18,292.25,467.9,291.78z"/>
<path class="st9" d="M468.94,23.07c-2.66,0.43-5.32,0.5-7.97-0.06c-0.2-0.19-0.39-0.38-0.6-0.57c-0.9-1.92-0.87-3.73,0.57-5.4
	c0,0-0.03,0.11-0.02,0.11c0.66-0.03,1.33,0.02,1.96-0.11C467.92,16.05,469.82,18.16,468.94,23.07z"/>
<path class="st10" d="M51.98,22.97c-2.59,0.66-5.2,0.51-7.81,0.11c0.11-6.17,0.11-6.17,7.93-5.94c0,0-0.02-0.11-0.02-0.11
	c1.42,1.68,1.47,3.49,0.53,5.39C52.39,22.61,52.18,22.79,51.98,22.97z"/>
<path class="st2" d="M50.96,299.19c0.29-0.11,0.58-0.2,0.88-0.25c0.09,1.98,0.19,3.95,0.28,5.92
	C50.16,303.3,51.63,301.03,50.96,299.19z"/>
<path class="st11" d="M22.22,455.91c0-26.33,0-52.65,0-78.98c0.57-0.35,1.18-0.49,1.84-0.44c5.8,0.67,6.56,1.4,6.6,7.61
	c0.11,18.48,0.02,36.95,0.05,55.43c0.01,7.66,0.14,7.8,7.82,7.8c48.44,0.01,96.87,0.01,145.31,0.01c3.53,0,7.19,0.31,8.63-4.09
	c2.07-2.06,4.58-1.85,7.13-1.36c0.57,0.17,1.08,0.46,1.53,0.84c1.34,3.83,4.02,5.13,8.04,4.84c4.3-0.31,8.65-0.29,12.95,0
	c3.82,0.25,6.42-0.91,7.65-4.65c0.44-0.43,0.94-0.75,1.52-0.96c2.56-0.57,5.05-0.78,7.19,1.18c1.66,4.39,5.35,4.22,9.1,4.22
	c41.14-0.03,82.29-0.03,123.43,0c2.81,0,5.68-0.36,8.37,0.9c2.46,4.18,0.47,8.73,1.06,13.06c-0.03,5.87,0.14,6.09,4.82,6.23
	c6.63,0.2,6.88,0.02,7.25-5.39c0.21-4.5-1.09-9.14,1.2-13.45c5.23-2.12,10.51-1.76,15.81-0.32c2.08,4.22,0.39,8.7,0.89,13.02
	c0.03,6.03,0.15,6.15,6.09,6.14c5.78-0.01,5.94-0.18,5.92-6.34c0.31-4.19-0.99-8.55,1.3-12.53c4.93-2.04,9.91-1.7,14.91-0.32
	c2.04,1.82,1.62,4.28,1.72,6.6c-0.69,4.1,0.23,7.09,5.12,7.28c0.43,0.23,0.78,0.56,1.05,0.96c1.8,4.6,2.85,4.95,9.41,4.47
	c3.32-0.24,3.72-2.13,3.6-4.71c-0.02-0.51-0.01-1.02-0.01-1.53c0.16-2.05-0.35-4.3,1.84-5.68c1.65,0.44,1.5,1.94,1.82,3.14
	c0.3,1.14,0.58,2.38,2.05,2.32c1.64-0.07,2.07-1.37,2.23-2.75c0.14-1.14,0.06-2.29,0.01-3.44c0.05-2.3-0.28-4.68,1.53-6.56
	c2.28-1.35,4.82-0.99,7.29-1.08c5.47-0.19,5.98-0.58,6-6.05c0.08-17.59,0.02-35.17,0.03-52.76c0-1.82-0.05-3.65,0.05-5.47
	c0.28-5.31,0.92-5.94,6.55-6.59c0.65-0.06,1.24,0.09,1.79,0.44c-0.04,32.65-0.09,65.29-0.13,97.94c-1.88,1.06-3.92,0.51-5.87,0.51
	c-144.19,0.03-288.39-0.05-432.58,0.25c-7.56,0.02-11.44-4.37-16.2-8.23c-1.23-1-2.04-2.53-3.73-3.06c-1.81-0.57-3.5-1.56-4.09-3.39
	C27.16,457.97,24.09,457.69,22.22,455.91z"/>
<path class="st12" d="M431.91,494.84c-1.32,0.08-2.65,0.23-3.97,0.23c-81.97,0.01-163.94,0.01-245.92,0c-1.32,0-2.65-0.15-3.97-0.22
	c-2.27-4.08-2.4-8.15,0.07-12.2c1.14-0.31,2.31-0.21,3.48-0.21c82.39,0,164.78,0,247.16,0c1,0,2-0.05,2.99,0.16
	C434.45,486.64,434.09,490.73,431.91,494.84z"/>
<path class="st13" d="M23.1,376.97c-0.29-0.02-0.59-0.03-0.88-0.03c-1.18-4.99,0.67-6.22,5.78-6.21
	c152.31,0.16,304.62,0.16,456.93-0.01c5.16-0.01,6.92,1.28,5.79,6.22c-0.27,0-0.55,0.02-0.82,0.04c-5.88,0.96-11.75,1.68-17.75,1.68
	c-143.77-0.06-287.53-0.06-431.3,0C34.85,378.65,28.98,377.93,23.1,376.97z"/>
<path class="st14" d="M363.96,351.9c0.32,0.06,0.64,0.11,0.96,0.13c2.27,3.93,2.3,7.87,0.02,11.81c-3.65,0.07-7.3,0.2-10.95,0.2
	c-49.16,0.01-98.33,0.01-147.49,0c-1.82,0-3.65-0.11-5.47-0.17c-2.29-3.96-2.23-7.92,0-11.88
	C255.34,351.95,309.65,351.92,363.96,351.9z"/>
<path class="st15" d="M431.82,483.05c-22.8-0.04-45.61-0.11-68.41-0.1c-61.76,0.01-123.51,0.06-185.27,0.1
	c-2.16,1.67-4.72,1.42-7.19,1.43c-11.82,0.03-23.63,0.01-35.45,0.02c-6.38,0-8.33-0.12-8.02,6.73c0.06,1.35-0.46,2.61-1.41,3.64
	c-19.67-0.01-39.33-0.02-59-0.02c-1.61-1.77-1.47-3.99-1.44-6.11c0.05-3.2-1.48-4.43-4.56-4.35c-3.14,0.08-6.28,0.13-9.42-0.02
	c-3.49-0.16-5.31,1.09-5.12,4.83c0.1,1.96,0.09,4-1.41,5.61c-2.06-3.55-0.74-7.39-0.77-11.08c-0.02-2.45,2.43-1.72,3.94-1.73
	c7.99-0.05,15.98,0,23.97,0c129.69-0.01,259.38-0.03,389.07-0.02c8.61,0,7.48-1.31,7.48,7.79c0,1.67,0.97,3.67-0.92,5.05
	c-1.51-1.61-1.55-3.66-1.51-5.64c0.07-3.43-1.59-4.72-4.88-4.72c-7.66,0.02-15.32,0.04-22.98-0.02
	C436.2,484.44,433.83,484.6,431.82,483.05z"/>
<path class="st16" d="M22.22,455.91c3.47,0.11,7.68-1.18,7.22,5.02c-0.14,1.95,2.3,2.06,3.99,1.96c2.39-0.14,3.94,0.52,3.67,3.29
	c-0.02,0.16,0.01,0.33,0.03,0.5c0.66,4.21,4.87,0.87,6.39,2.99c1.3,1.81-0.46,5.94,4.15,5.21c1.3-0.21,2.66-0.03,3.99-0.03
	c146.31,0.01,292.62,0.02,438.93,0.03c-1.32,1.58-3.11,0.78-4.65,0.78c-146.15,0.04-292.3,0.04-438.45,0.04
	c-7.16,0-14.32-0.17-21.47-0.04c-2.86,0.05-4.29-0.5-4.1-3.79C22.23,466.56,22.14,461.23,22.22,455.91z"/>
<path class="st17" d="M126.07,494.87c-0.04-11.93-0.04-11.94,11.85-11.92c13.4,0.02,26.81,0.06,40.22,0.1
	c-0.03,3.94-0.06,7.87-0.09,11.8C160.72,494.85,143.4,494.86,126.07,494.87z"/>
<path class="st17" d="M431.82,483.05c10.39-0.04,20.79,0.1,31.18-0.2c3.99-0.12,5.37,1.18,4.95,5.05c-0.25,2.28-0.05,4.62-0.05,6.93
	c-11.99,0.42-23.99,0.39-35.98,0.01C431.88,490.91,431.85,486.98,431.82,483.05z"/>
<path class="st11" d="M201.04,351.98c0,3.96,0,7.92,0,11.88c-9.99,0-19.99,0-29.98,0c-0.08-11.89-0.08-11.89,12.01-11.89
	C189.05,351.97,195.05,351.97,201.04,351.98z"/>
<path class="st18" d="M45.12,494.81c0.01-11.86,0.01-11.86,11.49-11.86c10.48,0,10.48,0,10.47,10.41c0,0.5,0,1,0,1.49
	C59.75,495.2,52.43,495.28,45.12,494.81z"/>
<path class="st19" d="M127.07,363.83c0-0.83-0.03-1.66,0-2.49c0.29-10.78-2.23-9.15,9.99-9.42c2.99-0.07,4.27,0.88,4.04,3.97
	c-0.2,2.64-0.05,5.31-0.06,7.96C136.38,363.85,131.73,363.84,127.07,363.83z"/>
<path class="st11" d="M364.94,363.83c-0.01-3.94-0.01-7.87-0.02-11.81c0.67-0.02,1.33-0.05,2-0.05c12.11-0.08,12.11-0.08,12.02,11.9
	C374.27,363.85,369.61,363.84,364.94,363.83z"/>
<path class="st11" d="M371.96,318.01c-1.15,0.09-2.31,0.25-3.46,0.25c-54.84,0.01-109.67,0.01-164.51,0c-0.99,0-1.98-0.14-2.97-0.22
	c-2.17-4.1-2.39-8.2,0.03-12.29c1.3-0.41,2.64-0.25,3.97-0.25c54.25-0.01,108.49-0.01,162.74,0c1.32,0,2.67-0.18,3.96,0.27
	C374.54,309.8,374.07,313.89,371.96,318.01z"/>
<path class="st12" d="M312.01,344.09c-22.34,0.37-44.68,0.46-67.02-0.05c-1.96-6.46-3.36-12.88,1.02-19
	c21.98,0.01,43.97,0.02,65.95,0.03C314.54,331.4,314.4,337.74,312.01,344.09z"/>
<path class="st20" d="M371.95,306.01c-56.98-0.01-113.96-0.03-170.94-0.04c-1.91,1.7-4.28,1.51-6.57,1.53
	c-5.61,0.06-11.21,0.08-16.82,0c-3.51-0.05-5.22,1.32-5.07,4.94c0.08,1.98-0.09,3.98-1.52,5.59c-7.33,0-14.65-0.01-21.98-0.01
	c-0.57-0.6-0.97-1.29-1.18-2.09c-0.41-1.58-1.26-2.59-3.06-2.48c-1.57,0.1-2.21,1.14-2.58,2.48c-0.22,0.8-0.6,1.49-1.18,2.09
	c-5,0-9.99,0-14.99,0.01c-1.3-1.46-1.62-3.27-1.46-5.08c0.4-4.53-1.94-5.73-5.96-5.48c-2.95,0.18-5.92,0.08-8.88,0.01
	c-1.97-0.04-3.98,0.03-5.57-1.47c0.93-1.88,2.65-0.97,3.96-0.97c87.1-0.06,174.21-0.07,261.31-0.07c0.83,0,1.66,0.11,2.49,0.17
	c0.11,0.15,0.22,0.3,0.34,0.44C372.18,305.72,372.07,305.87,371.95,306.01z"/>
<path class="st21" d="M222.99,344.06c-9.98,0-19.96,0-29.94,0.01c-2.53-6.34-2.53-12.69-0.04-19.04c10,0,20.01,0,30.01,0.01
	C225.52,331.38,225.52,337.73,222.99,344.06z"/>
<path class="st22" d="M222.99,344.06c0.01-6.34,0.02-12.68,0.04-19.03c7.66,0,15.32,0,22.98,0.01c-2.16,6.23-0.42,12.68-1.02,19
	C237.66,344.05,230.33,344.06,222.99,344.06z"/>
<path class="st3" d="M371.96,318.01c0-4,0-8,0-11.99c0,0-0.01-0.12-0.01-0.12c9.28-0.9,18.59-0.14,27.88-0.4
	c2.08-0.06,3.13,1.05,3.37,2.9c0.42,3.29,1,6.64-1.25,9.6C391.95,318.44,381.95,318.42,371.96,318.01z"/>
<path class="st3" d="M171.03,318.03c0.01-12.05,0.01-12.05,12.17-12.05c5.94,0,11.88-0.01,17.81-0.01c0,4.02,0,8.05,0,12.07
	C191.02,318.04,181.02,318.04,171.03,318.03z"/>
<path class="st23" d="M312.01,344.09c-0.02-6.34-0.03-12.68-0.05-19.01c3.97-0.07,7.94-0.01,11.9-0.25c2.72-0.16,3.55,1.03,3.28,3.5
	c-0.07,0.65-0.01,1.32-0.01,1.99C327.18,345.08,327.18,345.08,312.01,344.09z"/>
<path class="st3" d="M104.19,306c5.66-0.01,11.33,0.25,16.97-0.11c4.12-0.26,5.34,1.32,4.95,5.14c-0.24,2.31-0.04,4.66-0.04,6.99
	c-6.42,0.08-12.85,0.1-19.27,0.26c-2.15,0.05-2.95-0.78-2.84-2.9C104.12,312.26,104.12,309.13,104.19,306z"/>
<path class="st24" d="M193.02,325.03c0.01,6.35,0.03,12.69,0.04,19.04c-7.14,0.51-7.14,0.51-7.14-6.28c0-2.15,0-4.29,0-6.44
	C185.92,324.62,185.92,324.62,193.02,325.03z"/>
<path class="st25" d="M401.94,317.99c-0.04-12.01-0.04-12-12.2-12.01c-5.93-0.01-11.86-0.05-17.8-0.09c0-0.26,0.01-0.51,0.01-0.76
	c11.31-0.03,22.62-0.02,33.92-0.14c2.37-0.03,3.37,0.76,3.14,3.14c-0.11,1.15-0.01,2.33,0,3.49
	C409.02,318.55,409.02,318.55,401.94,317.99z"/>
<path class="st26" d="M141.06,318.01c0.1-2.93-1.08-6.31,4.25-6.16c5.19,0.15,3.39,3.6,3.74,6.17
	C146.38,318.02,143.72,318.02,141.06,318.01z"/>
<path class="st14" d="M45.23,245.94c0.01-69.93,0.02-139.86,0.03-209.8c2.84-1.39,6.04-2.4,6.59-6.22c2.93-1.21,6.45-1.77,6.71-5.98
	c0.56-0.84,1.35-1.63,2.29-1.66c3.49-0.08,4.99-2.41,6.24-5.13c29.44-0.07,58.89-0.19,88.33-0.2c95.34-0.03,190.67-0.01,286.01,0
	c1.49,0,2.98,0.12,4.48,0.19c0.86,4.73,5.84,4.25,8.49,6.72c0.3,4.11,3.58,4.93,6.63,6c0.75,3.7,3.79,4.93,6.73,6.27
	c0.04,40.13,0.09,80.26,0.1,120.4c0.01,29.81-0.04,59.62-0.06,89.42c-3.4,2.22-6.25,1.92-8.22-1.91c-0.64-1.25-1.46-2.22-2.87-2.53
	c-2.36-0.52-3.72-1.96-4.31-4.29c-0.29-1.15-0.85-2.36-2.36-1.94c-1.35,0.37-1.46,1.71-1.54,2.86c-0.24,3.48-0.07,6.97-0.11,10.46
	c-0.05,4.48,0.23,8.98-0.17,13.44c-0.14,1.53,0.39,4.23-2.86,3.49c-1.52-2.8-1.04-5.86-1.04-8.82
	c-0.03-65.25-0.02-130.51-0.02-195.76c0-2-0.02-3.99-0.07-5.99c-0.08-3.03-1.61-4.17-4.51-3.68c-2.39,0.17-4.79,0.49-7.1-0.43
	c-0.5-0.22-0.83-0.61-1-1.13c0.04-0.33,0.17-0.63,0.38-0.87c1.35-1.52,4.86-0.21,4.89-2.56c0.03-3.09-4.06-1.29-5.45-3.25
	c-0.35-0.47-0.62-0.96-0.84-1.5c-0.69-2.69-2.51-3.74-5.15-3.78c-1.83-0.03-3.66-0.07-5.49-0.07c-109.4,0-218.8,0-328.2,0
	c-2.49,0-5-0.15-7.44,0.47c-2.42,0.85-1.7,3.69-3.21,5.11c-2.7,1.22-5.73,1.76-6.72,5.44c-0.64,2.41-4.98,0.66-5.5,3.92
	c-0.34,2.34-0.19,4.68-0.19,7.01c-0.01,65.59,0,131.19-0.02,196.78c0,2.97,0.39,6.01-0.88,8.86c-2.55,0.07-2.68,0.08-2.99-2.41
	c-0.48-3.78-0.18-7.6-0.22-11.4c-0.05-4.3,0.1-8.6-0.09-12.9c-0.06-1.28,0-2.88-1.63-3.26c-1.85-0.44-2.11,1.23-2.47,2.43
	c-0.58,1.93-1.74,3.14-3.69,3.61c-1.53,0.37-2.58,1.26-3.32,2.7C51.45,247.86,48.62,248.2,45.23,245.94z"/>
<path class="st19" d="M67.1,17.16c0.4,3.88-0.16,6.85-5.27,6.03c-0.84-0.14-1.82,0.57-2.73,0.89c-2.3,1.66-4.61,1.85-6.91,0
	c-0.07-0.37-0.14-0.74-0.21-1.12c0,0,0.01,0.04,0.01,0.04c3.05-1.13,6.06-2.31,7.12-5.85C61.77,17.16,64.43,17.16,67.1,17.16z"/>
<path class="st19" d="M453.9,24.09c-0.91-0.32-1.89-1.03-2.73-0.9c-5.13,0.83-5.66-2.16-5.26-6.04c2.66,0,5.33,0,7.99,0
	c1.04,3.54,4.06,4.71,7.07,5.9c0,0,0-0.04,0-0.04c-0.05,0.36-0.11,0.72-0.16,1.07C458.51,25.88,456.21,25.77,453.9,24.09z"/>
<path class="st2" d="M460.97,23.05c-7.01,0.1-7.01,0.1-7.07-5.9c2.35-0.04,4.7-0.08,7.05-0.12
	C460.96,19.04,460.96,21.04,460.97,23.05z"/>
<path class="st27" d="M59.1,17.16c-0.07,6.04-0.07,6.04-7.12,5.85c0.03-1.99,0.06-3.99,0.08-5.98
	C54.41,17.07,56.76,17.12,59.1,17.16z"/>
<path class="st11" d="M445.89,265.96c1.7-1.43,0.98-3.39,1-5.11c0.07-8.1,0.09-16.2,0-24.3c-0.03-2.48,0.75-3.62,3.39-3.58
	c2.37,0.03,3.87,0.56,3.65,3.31c-0.07,0.81,0.13,1.63,0.21,2.45c6.23-0.75,6.54,9.68,13.67,7.23c0.01,10.98,0.01,21.96,0.02,32.94
	c-3.08,0.42-7.61-1.41-7.06,4.59c-4.29,1.21-7.55,3.4-8.34,8.25c-0.05,0.29-2.48,0.22-3.81,0.25c-1.51,0.04-2.75,0.52-2.61,2.25
	c0.32,3.83-2.13,3.71-4.8,3.71c-124.66-0.04-249.32-0.05-373.98-0.07c-1.51-2.61-3.17-5.02-6.69-4.94
	c-0.47,0.01-1.17-0.28-1.28-0.65c-1.17-3.83-4.74-5.25-7.16-7.75c-2.16-2.24-4.42-3.99-6.9-5.66c0.01-10.98,0.02-21.96,0.03-32.94
	c3.29-0.01,7.47,1.37,7.04-4.48c4.48-1.02,6.62-3.92,8.54-8.1c1.02-2.23,5.23,0.13,5.26,3.46c0.07,7.99-0.02,15.99,0.06,23.98
	c0.02,1.73-0.74,3.71,1.02,5.14c2.09-1.6,4.3-1.48,6.57-0.48c0.45,0.31,0.82,0.72,1.08,1.2c0.67,2.61,1.55,5.01,4.8,5.36
	c3.13,0.34,1.86,5,5.13,5.23c3.01,0.27,6.01,0.11,9.01,0.11c109.54,0.01,219.09,0.01,328.63,0.01c2,0,4,0.06,5.96-0.16
	c3.19-0.39,1.85-3.6,3.15-5.15c2.58-1.58,6.66-1.38,6.86-5.8c0.3-0.46,0.69-0.8,1.19-1.03
	C441.76,264.53,443.92,264.39,445.89,265.96z"/>
<path class="st2" d="M45.19,278.88c2.99,0.5,7.57-1.46,7.02,4.53c4.42,1.22,7.28,3.99,8.51,8.43c0.03,0.12,0.63,0.17,0.94,0.11
	c5.02-0.98,5.86,1.94,5.56,5.93c-5,0.04-10,0.09-15,0.14c0.62-5.5-2.42-6.81-7.12-6.25C45.13,287.48,45.16,283.18,45.19,278.88z"/>
<path class="st11" d="M453.9,24.09c2.3,0,4.61,0,6.91-0.01c0.23,2.02-0.15,4.16,1.14,5.98c-0.34,0.35-0.69,0.38-1.05,0.02
	C456.41,30.61,452.74,30.17,453.9,24.09z"/>
<path class="st28" d="M460.9,30.08c0.35-0.01,0.7-0.02,1.05-0.02c5.03-0.94,6.81,1.24,5.82,6.07
	C463.36,36.53,459.67,36.1,460.9,30.08z"/>
<path class="st11" d="M52.19,24.09c2.3,0,4.61,0,6.91,0c1.17,6.08-2.5,6.52-6.99,6c-0.35,0.35-0.7,0.34-1.04-0.02
	C51.15,28.02,50.83,25.89,52.19,24.09z"/>
<path class="st29" d="M51.06,30.07c0.35,0.01,0.7,0.01,1.04,0.02c1.23,5.99-2.44,6.44-6.85,6.06
	C44.25,31.31,46.03,29.13,51.06,30.07z"/>
<path class="st14" d="M23.1,376.97c155.6,0,311.2,0,466.81,0c-6.3,0.5-6.17,4.67-6.11,9.58c0.24,19.13,0,38.27,0.18,57.4
	c0.04,3.92-1.04,5.43-5.05,5.06c-3.3-0.31-6.65-0.05-9.98-0.04c-1.42-2.54-2.73-4.92-6.33-5.08c-2.94-0.13-2.73-3.19-3.49-5.22
	c-5.78-3.35-10.83-1.83-12.48,3.77c-0.22,0.43-0.54,0.78-0.93,1.06c-3.55,0.24-5.62,2.33-6.85,5.48c-5.06,0.03-10.11,0.07-15.17,0.1
	c-4.58,2.08-9.15,2.19-13.7-0.09c-5.4,0.01-10.8,0.03-16.2,0.04c-4.59,2.19-9.17,2.22-13.76-0.02
	c-45.38-0.02-90.76-0.12-136.14,0.05c-4.88,0.02-6.68-1.43-5.91-6.13c0.16-0.17,0.32-0.34,0.47-0.51c1.5-1.27,5.27,0,4.72-3.19
	c-0.54-3.15-3.79-1.77-5.91-1.93c-1.54-0.12-3.39-0.62-4.5,1.19c-0.66,1.47-0.45,3.27-1.79,4.46c-0.34,0.02-0.69,0.05-1.03,0.07
	c-0.18-0.19-0.37-0.37-0.55-0.56c-0.89-3.18-2.98-4.29-6.25-4.16c-5.08,0.2-10.19,0.2-15.27,0c-3.27-0.13-5.36,0.96-6.23,4.16
	c-0.18,0.19-0.37,0.37-0.56,0.55c-0.34-0.02-0.68-0.04-1.01-0.06c-1.36-1.2-1.15-3.04-1.86-4.5c-2.23-2.22-5-0.93-7.52-1.13
	c-1.33-0.1-2.79,0.23-2.98,1.93c-0.2,1.76,1.15,2.17,2.52,2.42c0.81,0.15,1.63,0.3,2.35,0.73c0.16,0.17,0.31,0.34,0.47,0.51
	c0.74,4.68-1.02,6.16-5.92,6.14c-50.71-0.18-101.42-0.18-152.13,0c-4.88,0.02-6.08-1.42-6.01-6.15c0.26-18.79-0.04-37.58,0.21-56.36
	C29.27,381.62,29.38,377.47,23.1,376.97z"/>
<path class="st30" d="M460.91,436.94c-0.34,3.83,0.01,6.55,5.26,6.14c4.45-0.35,2.02,3.79,2.79,5.88c-0.02,2.31-0.04,4.61-0.06,6.92
	c-2.26,1.77-4.57,1.85-6.93,0.2c-1.96,1.64-0.58,3.92-1.11,5.83c-3.58,2.22-6.57,1.99-8.35-2.24c-1.35-3.2-5.23-1.64-7.01-3.94
	c-1.54-4.32-1.99-8.59,0.42-12.77l0,0c2.81-1.68,6.25-2.05,8.07-5.76C454.83,435.49,458.51,436.19,460.91,436.94z"/>
<path class="st31" d="M380.05,449c4.59,0.01,9.17,0.01,13.76,0.02c0.03,4.61,0.05,9.22,0.08,13.82c-5.25,2.64-11.47,2.23-14.85-0.98
	C379.42,457.58,378,453.15,380.05,449z"/>
<path class="st32" d="M410.01,448.98c4.57,0.03,9.13,0.06,13.7,0.09c0.08,4.3,0.16,8.6,0.24,12.9c-4.1,3.49-11.1,3.46-14.97-0.08
	C409.42,457.6,407.93,453.15,410.01,448.98z"/>
<path class="st33" d="M229.95,443.01c1,4.84-1.01,6.36-5.8,6.03c-5.74-0.39-11.54-0.4-17.28,0c-4.81,0.33-6.78-1.22-5.79-6.04
	c0,0-0.06-0.17-0.06-0.17c1.19-1.02,2.62-1.36,4.13-1.4c6.91-0.16,13.83-0.16,20.74,0c1.51,0.04,2.94,0.39,4.12,1.42L229.95,443.01z
	"/>
<path class="st33" d="M408.98,461.9c4.98,1.54,9.97,1.35,14.97,0.08c-0.19,8.21,1.22,6.46-9.75,7.08
	C407.8,469.41,408.88,465.6,408.98,461.9z"/>
<path class="st13" d="M445.93,442.94c0.03,4.29,0.05,8.58,0.08,12.87c-0.19,0.21-0.39,0.42-0.58,0.64c-2.27,1.06-4.45,1.08-6.5-0.53
	c-0.02-2.32-0.03-4.64-0.05-6.96C439.01,442.92,439.01,442.92,445.93,442.94z"/>
<path class="st33" d="M379.03,461.86c4.84,2.04,9.91,0.58,14.85,0.98c0.87,4.62-0.67,6.95-5.69,6.1c-0.8-0.14-1.65-0.02-2.47-0.02
	C378.88,468.92,378.88,468.92,379.03,461.86z"/>
<path class="st33" d="M460.91,462.88c0.01,7.32,0.26,5.75-8.22,6.11c-4.57,0.19-7.94-0.26-6.74-6.11c1.73-1.62,4-1.89,5.91-1.16
	C454.85,462.86,457.99,461.83,460.91,462.88z"/>
<path class="st34" d="M460.91,462.88c-4.99,0-9.98,0-14.96-0.01c0,0,0.03,0.04,0.03,0.04c-1.79-2.3-1.82-4.61-0.08-6.95
	c0,0,0.11-0.14,0.11-0.15c1.66,0.04,3.33,0.08,4.99,0.13c1.17,0.04,2.77,0.02,2.7,1.52c-0.29,6.01,4.02,4.21,7.17,4.43
	C460.89,462.22,460.91,462.55,460.91,462.88z"/>
<path class="st35" d="M445.9,455.96c0.03,2.32,0.05,4.63,0.08,6.95c-7.8-0.07-7,0.84-7.05-6.99
	C441.25,455.94,443.57,455.95,445.9,455.96z"/>
<path class="st36" d="M461.97,456.07c2.31-0.07,4.62-0.13,6.93-0.2c-0.02,1.47,0.07,2.96-0.09,4.41c-0.26,2.39-2.05,2.58-3.98,2.63
	c-2.08,0.05-3.02-0.84-2.91-2.92C461.99,458.69,461.96,457.38,461.97,456.07z"/>
<path class="st33" d="M200.03,436.93c0.01,2,0.03,4.01,0.04,6.01c-2.34-0.01-4.68-0.02-7.01-0.03c0,0,0,0,0,0
	c-1.44-1.71-1.9-3.92-0.42-5.4C194.67,435.47,197.49,436.36,200.03,436.93z"/>
<path class="st37" d="M230.99,442.94c0.01-2,0.02-4,0.03-6c0.87-0.63,1.89-0.47,2.86-0.48c5.46-0.07,6.29,1.23,4.12,6.46
	c0,0,0,0,0,0C235.66,442.92,233.32,442.93,230.99,442.94z"/>
<path class="st38" d="M431.89,49.08c0.01,0.33,0.02,0.66,0.03,1c1.49,2.06,1.73,4.09-0.14,6.07c-1.98,0.09-1.71-1.6-2.05-2.72
	c-0.39-1.27-0.57-2.74-2.28-2.7c-2.05,0.04-2.03,1.77-2.23,3.21c-0.12,0.81-0.19,1.62-0.51,2.4c-0.25,0.51-0.61,0.87-1.11,1.13
	c-2.92,0.44-5.84-0.17-8.75,0.11c-0.5,0.05-1,0.1-1.5,0.1c-105.03,0.01-210.07,0.09-315.1-0.02c-2.66-0.39-5.4,0.14-8.03-0.6
	c-0.53-0.17-1-0.45-1.4-0.83c-0.49-4.32-3.72-5.96-7.24-7.31c-0.96-2.02-0.97-4,0.28-5.91c0.46-0.47,0.99-0.81,1.61-1.02
	c2.45-0.71,4.96-0.53,7.44-0.53c110.63-0.01,221.26-0.02,331.9,0.02c3.09,0,6.39-0.69,9.05,1.74l-0.07-0.05
	C433.57,45.1,433.45,47.08,431.89,49.08z"/>
<path class="st3" d="M430.89,55.97c1.9-1.69,0.6-3.94,1.03-5.89c2.31,0,4.62,0.01,6.93,0.01c1.91,1.84,1.67,4.27,1.68,6.56
	c0.05,67.58,0.04,135.15,0.01,202.73c0,2.32,0.08,4.7-1.66,6.61l0.06-0.04c-2.03,1.78-4.49,1.51-6.91,1.46
	c-2.78-0.23-5.81,0.79-8.18-1.58c0.23-2.49,2.39-1.7,3.78-2.18c0.9-0.31,2.18-0.23,2.13-1.58c-0.05-1.23-1.22-1.41-2.18-1.64
	c-1.58-0.38-3.37-0.26-4.39-1.94c-0.9-1.97-0.71-4.07-0.73-6.14c-0.29-2.16-0.16-4.33-0.16-6.49c-0.01-58.42-0.01-116.83,0-175.25
	c0-2.33-0.13-4.66,0.15-6.98c0.08-2.27-0.42-4.67,1.43-6.55c0.08-0.27,0.1-0.54,0.08-0.82C426.2,54.25,428.51,54.32,430.89,55.97z"
	/>
<path class="st13" d="M431.85,43.21c-2.5-0.03-5-0.1-7.49-0.1c-114.09-0.02-228.19-0.03-342.28-0.05c-0.75-2-0.76-3.99,0.01-5.98
	c1.65-1.71,3.78-0.96,5.68-0.96c112.33-0.04,224.66-0.03,336.99-0.03C431.98,36.09,431.98,36.09,431.85,43.21z"/>
<path class="st13" d="M438.88,265.99c-0.01-71.97-0.02-143.93-0.02-215.9c6.34-2.11,7.07-1.64,7.07,4.65
	c-0.01,70.41-0.03,140.81-0.04,211.22C443.55,265.97,441.22,265.98,438.88,265.99z"/>
<path class="st13" d="M74.09,265.99c-2.32-0.02-4.63-0.03-6.95-0.05c-0.02-71.95-0.03-143.91-0.05-215.86
	c2.52-0.66,5.02-1,7.48,0.26c1.33,2.11,1.13,4.48,1.13,6.79c0.02,67.25,0.03,134.51,0,201.76c0,2.15,0.13,4.35-0.93,6.36
	C74.55,265.49,74.32,265.74,74.09,265.99z"/>
<path class="st39" d="M74.05,50.06c-2.32,0-4.64,0.01-6.96,0.01c1.12-1.44,2.73-0.89,4.17-1c1.18-0.1,2.71-0.09,2.64-1.6
	c-0.32-6.08,4.1-4.08,7.19-4.39c0.14,0.27,0.28,0.55,0.43,0.82c0.04,0.64,0.05,1.29,0.05,1.93C81.54,51.56,79.7,52.6,74.05,50.06z"
	/>
<path class="st40" d="M431.89,49.08c-0.03-1.97-0.07-3.95-0.1-5.92c2.4,0.8,6.7-2.39,7,2.62C439.13,51.46,434.29,48.12,431.89,49.08
	z"/>
<path class="st39" d="M82.08,37.08c0,1.99-0.01,3.99-0.01,5.98c0,0,0.13,0.2,0.13,0.2c-0.41,0.31-0.78,0.26-1.09-0.15
	c0,0-0.02-0.02-0.02-0.02C81.41,41.08,80.27,38.83,82.08,37.08z"/>
<path class="st41" d="M424.06,264.93c2.36,2.26,5.3,0.52,7.9,1.15c0.35,0.59,0.48,1.22,0.41,1.9c-0.05,4.09-2.41,5.5-6.16,5.42
	c-2.16-0.05-4.33,0.01-6.49,0.01c-106.85,0-213.71-0.06-320.56,0.12c-9.1,0.02-17.68-0.35-24.99-6.48c-0.03-0.35-0.05-0.7-0.08-1.06
	c0,0-0.03,0.03-0.03,0.03c2.48-2.21,5.58-1.2,8.4-1.62c1.6-0.3,3.69,0.05,4.48-1.66c2.19-4.72,6.32-4.15,10.29-4.15
	c69.71-0.01,139.43,0,209.14-0.01c36.1,0,72.21,0,108.32-0.01c1.95,0.01,3.9-0.1,5.83,0.12
	C424.66,259.17,425.41,260.54,424.06,264.93z"/>
<path class="st42" d="M430.92,278.81c-1.66,0.06-3.32,0.18-4.98,0.18c-112.96,0.01-225.91,0.01-338.87,0
	c-1.66,0-3.32-0.12-4.98-0.18c-1.02-6.28-1.02-6.3,4.9-6.3c113.01,0,226.02,0,339.03,0C431.94,272.51,431.94,272.52,430.92,278.81z"
	/>
<path class="st43" d="M430.92,278.81c0.69-4.41-0.82-5.93-5.61-5.93c-112.54,0.14-225.07,0.14-337.61,0
	c-4.8-0.01-6.3,1.52-5.61,5.93c-1.04-3.14-1.28-6.53-6.32-6.39c-2.54,0.07-1.44-3.4-1.6-5.37c3.09,0.59,7.77-2.29,8.28,3.92
	c0.07,0.87,1.22,0.99,2.06,1.01c1.33,0.03,2.66,0.03,4,0.03c111.95,0,223.9-0.02,335.84,0.1c4.14,0,6.98-0.52,7.57-5.1
	c1.53,1.68,1.24,3.37,0.02,5.06C431.39,274.28,432.78,276.79,430.92,278.81z"/>
<path class="st44" d="M431.95,272.06c-0.01-1.69-0.02-3.38-0.02-5.06c0-0.31,0.01-0.61,0.03-0.92c2.33-0.04,4.65-0.08,6.98-0.13
	C438.92,272.09,438.92,272.09,431.95,272.06z"/>
<path class="st45" d="M274.99,416.95c-1.16-0.07-2.34-0.3-3.47-0.16c-3.22,0.39-3.98-1.18-3.84-4.07c0.18-3.81,0.26-7.66-0.02-11.46
	c-0.26-3.5,0.94-4.5,4.44-4.46c15.61,0.16,31.23,0.03,46.85,0.01c5.04-2.54,10.46-1.5,15.69-1.38c12.11,0.27,24.23-0.36,36.32,0.48
	c1.89,0.85,3.9,0.53,5.87,0.56c15.36,0.22,30.74-0.42,46.1,0.34c2.23,6,1.16,12.25,0.72,18.29c-0.24,3.4-4.5,0.83-6.72,1.85
	c-1.6,1.46-3.6,1.59-5.6,1.59c-13.08-0.01-26.16,0.2-39.24-0.09c-10.01,0.17-20.02,0.2-30.03-0.01c-7.4,0.17-14.81,0.18-22.21,0
	c-13.09,0.29-26.18,0.09-39.27,0.1C278.6,418.52,276.6,418.4,274.99,416.95z"/>
<path class="st46" d="M59.06,422.86c-7.14,0.34-7.14,0.34-7.14-6.52c0-7.15,0.2-14.32-0.08-21.46c-0.15-3.77,1.07-4.82,4.79-4.78
	c18.96,0.17,37.93,0.08,56.89,0.08c39.26,0,78.52,0,117.78,0c6.65,0,6.66,0.01,6.67,6.89c0.01,6.16,0.02,12.31,0,18.47
	c-0.02,7.81-0.03,7.81-7.88,7.26c-1.62-1.66-1.48-3.77-1.47-5.84c-0.08-4.1-0.01-8.2-0.04-12.31c-0.05-6.17-0.05-6.17-6.42-6.22
	c-34.28,0.22-68.55,0.25-102.83,0c-7.71,0.16-15.42,0.19-23.13-0.01c-9.71,0.14-19.43,0.21-29.13-0.04
	c-1.88,0.17-3.86-0.29-5.54,0.98c-2.27,5.55-0.54,11.33-0.99,16.97C60.34,418.61,60.81,420.96,59.06,422.86z"/>
<path class="st47" d="M229.99,416.93c0.03,1.96,0.06,3.91,0.09,5.86c-19.28,0.05-38.56,0.15-57.83,0.15
	c-37.73,0-75.46-0.05-113.19-0.08c0.01-7.09-0.01-14.18,0.06-21.26c0.02-1.56-0.62-3.35,1-4.59c1.91,2.3,1.24,5.07,1.39,7.68
	c0.05,0.83-0.13,1.69,0.03,2.49c0.52,2.56-1.41,7.26,1.89,7.21c3.74-0.07,1.77-4.81,2.18-7.5c0.49-3.27-0.65-6.64,0.47-9.9
	c10.01,0.01,20.02,0.02,30.03,0.03c2.32,2.91,1.48,6.36,1.54,9.61c0.14,8.57,0.17,8.63,8.58,8.71c38.71,0.38,77.42,0.1,116.12,0.22
	C224.95,415.56,227.72,414.96,229.99,416.93z"/>
<path class="st48" d="M201.03,429.94c-45.09,0-90.19,0-135.28-0.01c-1.5,0-3,0-4.49-0.05c-1.77-0.06-2.13-1.25-2.14-2.73
	c-0.01-1.6,0.12-3.08,2.23-3.15c1.16-0.04,2.33-0.05,3.49-0.05c53.08,0,106.16,0.06,159.24-0.11c4.8-0.02,6.79,1.27,5.94,6.08
	c-1.02,0.93-2.25,1.42-3.6,1.47c-7.26,0.26-14.52,0.26-21.79,0C203.28,431.34,202.05,430.86,201.03,429.94z"/>
<path class="st45" d="M445.94,416.84c-1.33-0.07-2.66-0.27-3.98-0.18c-2.44,0.18-3.35-0.9-3.07-3.22c0.02-0.16,0-0.33,0-0.5
	c0.11-5.13-1.68-11.8,0.87-14.97c2.69-3.35,9.64-0.9,14.72-1.06c5.98-0.19,11.98,0.09,17.96-0.1c2.88-0.09,3.82,0.91,3.62,3.71
	c-0.2,2.81-0.05,5.65-0.05,8.48c0,7.37,0,7.37-7.12,7.85C461.24,419.52,453.59,419.54,445.94,416.84z"/>
<path class="st49" d="M371.95,416.91c15,0.01,29.99,0.01,44.99,0.02c0.45,4.01-0.21,6.95-5.39,6.07c-1.87-0.31-2.79,0.95-2.57,2.74
	c0.49,3.85-1.65,4.26-4.77,4.23c-13.43-0.12-26.85-0.06-40.28-0.07c-1.04-4-1.27-7.61,4.19-8.33
	C370.87,421.21,370.46,418.29,371.95,416.91z"/>
<path class="st49" d="M274.99,416.95c14.99,0,29.98,0,44.97,0c1.43,2.12,2.3,4.57,5.48,5.14c2.88,0.52,2.87,3.2,2.7,5.61
	c-0.15,0.84-0.58,1.54-1.12,2.19c-13.13,0.02-26.26-0.01-39.39,0.08c-2.77,0.02-5.02-0.06-4.72-3.81c0.16-1.96-1.04-3.38-3.01-3.11
	C274.72,423.72,274.71,420.51,274.99,416.95z"/>
<path class="st3" d="M422.93,396.8c-17.33-0.01-34.67-0.01-52-0.02c-8.44-0.77-16.9-0.12-25.35-0.35c-1.74-0.05-3.84,0.56-4.43-2.01
	c-0.51-2.21,0.17-4.19,2.2-5.03c2.67-1.1,4.13-3.18,5.59-5.39c3.32-0.02,6.64-0.04,9.96-0.06c3.11-0.02,6.19-0.74,6.32,4.39
	c0.09,3.41,6.14-0.04,6.42,3.67c0.29,3.82,2.15,4.11,5.18,4.05c6.97-0.15,13.95-0.05,20.92-0.05c7.31,0,14.61,0,21.92,0
	C420.81,396,422,395.87,422.93,396.8z"/>
<path class="st50" d="M348.93,384c0.07,3.09,0.91,6.56-4.31,6.11c-2.02-0.17-2.65,1.57-2.63,3.44c0.03,2.42,1.71,2.42,3.43,2.42
	c6.92-0.01,13.85-0.03,20.77,0.02c1.6,0.01,3.33-0.49,4.73,0.79c-17.33,0.01-34.66,0.01-51.98,0.02c0.32-0.93,0.71-1.84,0.94-2.78
	c0.15-0.63-0.02-1.34,0.12-1.98c0.84-4.06,5.76-0.13,6.7-3.24c0.75-2.48,0.17-5.19,4.33-4.93
	C336.97,384.23,342.96,383.98,348.93,384z"/>
<path class="st51" d="M327.03,429.88c0-0.66,0-1.32-0.01-1.97c5.11-1.03,10.27-0.08,15.4-0.42c1.46-0.1,3.57,0.41,4.05-1.13
	c0.65-2.13-1.81-1.8-2.98-2.42c-3.32-1.77-3.31-4.2-1.54-7.04c10,0.01,20,0.01,30,0.02c0.2,3.45,0.47,6.85-4.82,6.1
	c-1.62-0.23-3.01,0.46-2.38,2.64c0.45,1.55-0.07,2.93-0.83,4.25C351.63,429.9,339.33,429.89,327.03,429.88z"/>
<path class="st28" d="M201.03,429.94c9.66-0.01,19.33-0.01,28.99-0.02c0.82,4.67-0.92,6.47-5.83,6.11c-5.75-0.42-11.57-0.42-17.32,0
	C201.99,436.38,200.21,434.63,201.03,429.94z"/>
<path class="st52" d="M230.02,442.85c-9.66-0.01-19.33-0.02-28.99-0.02c-0.81-4.84,1.22-6.37,6.02-6.01
	c5.63,0.42,11.34,0.42,16.97,0C228.84,436.45,230.84,438.02,230.02,442.85z"/>
<path class="st49" d="M445.94,416.84c7.65,0,15.3,0.01,22.96,0.01c1.02,5.22-1.37,6.71-6.27,6.17c-3.44-0.38-6.98-0.38-10.42,0
	C447.29,423.56,444.93,422.05,445.94,416.84z"/>
<path class="st13" d="M460.91,436.94c-3.38,0.06-6.89-1.17-7.55,4.65c-0.32,2.84-4.87,0.75-7.43,1.36c0.02-6.99,0.03-7.1,7-6.94
	C455.59,436.06,458.46,434.94,460.91,436.94z"/>
<path class="st53" d="M200.03,436.93c-6.97,0-6.97,0-6.98,5.98c-6.75,0.04-7.92-0.8-6.99-4.87c0.25-1.08,0.65-2.05,1.81-1.98
	C191.93,436.3,196.11,434.87,200.03,436.93z"/>
<path class="st28" d="M238,442.92c-0.02-6.01-0.02-6.01-6.98-5.98c3.92-2.07,8.1-0.76,12.15-0.84c2.1-0.04,1.81,1.99,1.83,3.44
	c0.02,1.49,0.17,3.18-2.01,3.32C241.33,442.95,239.66,442.9,238,442.92z"/>
<path class="st3" d="M82.11,265.9c-2.68,0.04-5.37,0.08-8.05,0.12c0-71.99-0.01-143.97-0.01-215.96c7.04-0.18,7.04-0.18,7.06-6.96
	c0.36,0.05,0.73,0.1,1.09,0.15c-0.01,1.95-0.02,3.9-0.03,5.85c0.83,3.77,3.39,5.85,6.86,7.04L89,56.1c1.99,2.18,1.51,4.87,1.54,7.45
	c0.27,1.82,0.16,3.65,0.16,5.48c0.01,58.54,0.01,117.08,0,175.62c0,2.49,0.12,4.99-0.13,7.47c-0.08,2.06,0.17,4.16-0.65,6.14
	c-0.46,0.95-1.31,1.65-2.27,1.67C83.67,260.01,82.3,262.38,82.11,265.9z"/>
<path class="st54" d="M97.16,56.12c106.23,0,212.47,0,318.7-0.01c1.86,2.47,1.94,4.94-0.01,7.4c-2.26,1.41-4.81,1.17-7.29,1.17
	c-101.61,0.02-203.23,0.02-304.84,0.01c-2,0-4,0.07-5.97-0.4c-0.63-0.16-1.21-0.45-1.74-0.83C94.43,60.71,94.02,58.14,97.16,56.12z"
	/>
<path class="st55" d="M415.94,63.12c-0.03-2.34-0.06-4.67-0.08-7.01c2.7,0.1,5.5-0.59,8.03,0.97c-0.01,2.02-0.03,4.05-0.04,6.07
	c-4.81,1.63-5.38,5.3-5.37,9.82c0.1,57.33,0.07,114.67,0.06,172.01c0,2.49,0.14,4.99-0.15,7.47c-0.05,2.29,0.35,4.66-1.32,6.63
	c-0.69,0.3-1.26,0.16-1.73-0.42c-1.28-2.92-3.48-4.22-6.7-4.03c-1.99,0.12-3.99,0.01-5.99,0.01c-98.7,0-197.41,0-296.11-0.02
	c-3.15,0-6.33,0.35-9.43-0.61c-0.62-0.25-1.13-0.64-1.55-1.15c-0.43-0.72-0.78-1.5-0.8-2.33c-0.21-12.1-0.85-24.21,0.33-36.3
	c0.24-0.61,0.65-1.08,1.19-1.44c0.69-0.01,1.19,0.3,1.5,0.92c1.4,4.55,0.54,9.22,0.72,13.84c0.3,4.48,0.11,8.97,0.13,13.45
	c0.04,9.41,0.02,9.42,9.2,9.42c26.41,0,52.81,0,79.22,0c1.99,0,3.99-0.03,5.98,0.12c14.98-0.2,29.95-0.22,44.93,0
	c20.97-0.29,41.93-0.1,62.9-0.12c34.45-0.04,68.9-0.01,103.34-0.01c1.66,0,3.33-0.07,4.99-0.02c3.55,0.11,5.1-1.48,5.11-5.08
	c0.01-5.99-0.21-11.98,0.13-17.97c-0.15-4.82-0.16-9.64,0-14.46c-0.21-14.97-0.22-29.93-0.01-44.9c-0.31-33.08-0.09-66.16-0.1-99.24
	C414.34,66.72,414.44,64.71,415.94,63.12z"/>
<path class="st56" d="M97.16,56.12c-1.55,2.18-0.73,4.69-0.99,7.05c-2.35,1.75-4.69,1.64-7.03-0.03c-0.05-2.34-0.09-4.69-0.14-7.03
	C91.72,56.11,94.44,56.11,97.16,56.12z"/>
<path class="st57" d="M430.89,55.97c-2.31,0.1-4.61,0.19-6.92,0.29c0.88-2.38-2.3-6.39,2.58-7.12
	C432.76,48.21,430.49,53.02,430.89,55.97z"/>
<path class="st58" d="M89.04,56.15c-7.33,0.06-7.33,0.06-6.86-7.04C89.1,49.08,89.1,49.08,89.04,56.15z"/>
<path class="st59" d="M416.92,253.1c0.03-14.97,0.08-29.95,0.08-44.92c-0.01-46.27-0.05-92.54-0.07-138.82c0-6.58,0-6.58,6.92-6.21
	c0.04,54.88,0.09,109.77,0.11,164.65c0,8.31-0.12,16.63-0.18,24.94C421.6,254.92,419.3,254.66,416.92,253.1z"/>
<path class="st60" d="M415.88,258.95c0.34,0.01,0.68,0.01,1.01,0.02c2.32-1.65,4.63-1.79,6.92,0.04c1.81,0.02,3.63-0.05,5.43,0.08
	c2.1,0.15,2.64,1.62,2.64,3.47c0,1.99-1.17,2.52-2.89,2.46c-1.65-0.05-3.29-0.07-4.94-0.1c0.59-8.22-5.67-4.13-9.13-5.07
	c-0.22-0.21-0.31-0.44-0.26-0.68c0.05-0.24,0.1-0.36,0.17-0.36C415.22,258.6,415.57,258.63,415.88,258.95z"/>
<path class="st61" d="M423.81,259.01c-2.31-0.01-4.61-0.03-6.92-0.04c0.01-1.96,0.02-3.92,0.03-5.87c2.29-0.12,4.57-0.24,6.86-0.36
	C423.79,254.83,423.8,256.92,423.81,259.01z"/>
<path class="st62" d="M414.94,259.2c0,0.22,0,0.44,0,0.66c-2.16,0.05-4.33,0.14-6.49,0.14c-101.93,0.01-203.86,0.01-305.79,0
	c-3,0-5.99-0.06-8.99-0.18c-2.71-0.11-4.52-0.03-4.81,3.75c-0.35,4.46-4.38,1.74-6.74,2.34c-2.13-6.23-1.45-6.89,7.07-6.88
	c2.2-1.98,4.9-1.41,7.47-1.48c1.66-0.26,3.33-0.17,4.99-0.17c101.27-0.01,202.54-0.01,303.81,0.04
	C408.66,257.41,412.18,256.47,414.94,259.2z"/>
<path class="st63" d="M346.01,409.95c-22.12,0-44.24,0.01-66.36-0.03c-1.99,0-4.63,0.81-4.65-2.76c-0.01-1.93,0.44-3.28,2.72-3.22
	c1.33,0.04,2.66-0.01,3.99-0.01c41.91,0,83.82,0,125.73-0.01c1.99,0,4.04,0.1,5.94-0.35c2.15-0.51,3.26,0.05,3.48,2.16
	c0.2,1.94-0.06,3.79-2.5,4.11c-1.31,0.17-2.65,0.11-3.98,0.11C388.92,409.95,367.46,409.95,346.01,409.95z"/>
<path class="st64" d="M341.95,416.89c-0.22,3.5-0.36,6.8,4.87,6.17c2.1-0.26,2.13,1.6,2.14,3.15c0,1.51-0.45,2.76-2.19,2.66
	c-6.58-0.36-13.26,1.17-19.75-0.97c0.36-3.22-0.22-5.2-4.33-5.07c-4.54,0.15-2.1-3.77-2.73-5.9
	C327.29,416.93,334.62,416.91,341.95,416.89z"/>
<path class="st65" d="M119.1,397.05c34.63,0,69.26,0.01,103.88,0.01c0.44,0.47,0.79,1,1.05,1.59c0.28,5.93,2.04,11.97-1.26,17.65
	c-33.52,0.29-67.04,0.04-100.56,0.13c-1.91,0.01-3.99-0.01-4.22-2.4C117.45,408.34,116.14,402.54,119.1,397.05z"/>
<path class="st66" d="M119.1,397.05c-0.01,4.83,0.23,9.67-0.11,14.48c-0.3,4.19,1.83,4.47,5.13,4.46c28.3-0.09,56.6-0.05,84.91-0.05
	c4.66,0,9.32-0.01,13.98-0.01c3.79-4.33,3.8-13.61,0.02-17.99c-0.01-0.29-0.02-0.59-0.04-0.88c6.79-0.14,7.08,0.13,7.08,6.62
	c0,4.41-0.04,8.83-0.07,13.24c-42.37,0-84.73,0-127.1,0c-6.81,0-6.82-0.01-6.82-6.96c0-4.32,0.02-8.64,0.03-12.96
	C103.77,397.03,111.43,397.04,119.1,397.05z"/>
<path class="st66" d="M66.08,396.98c2.03,5.65,0.72,11.48,0.87,17.23c0.06,2.4-1.96,2.66-3.94,2.73c-2.58,0.08-2.96-1.41-2.94-3.51
	c0.07-5.47,0.04-10.95,0.05-16.43C62.11,397,64.09,396.99,66.08,396.98z"/>
<path class="st63" d="M457.36,409.94c-2.66,0-5.33-0.06-7.99,0.02c-2.16,0.07-3.51-0.48-3.46-3.01c0.05-2.33,0.7-3.95,3.33-3.96
	c5.49-0.02,10.98-0.04,16.47,0.01c2.68,0.02,3.16,1.81,3.2,4.07c0.05,2.63-1.52,2.93-3.57,2.89
	C462.68,409.9,460.02,409.94,457.36,409.94z"/>
<path d="M89.14,63.13c2.34,0.01,4.68,0.02,7.03,0.03c0,0-0.02-0.03-0.02-0.03c1.73,1.93,1.54,4.33,1.54,6.64
	c0,45.95,0.17,91.91-0.21,137.86c-0.02,1.81,0.15,3.7-1.17,5.23c-0.07,13.4-0.13,26.79-0.2,40.19c-2.37,1.74-4.67,1.77-6.89-0.26
	c-0.07-1.33-0.19-2.65-0.19-3.98C89,187.91,89,127.02,89.01,66.12C89.01,65.13,89.09,64.13,89.14,63.13z"/>
<path class="st67" d="M89.2,252.79c2.3,0.09,4.59,0.18,6.89,0.26c0,0-0.08-0.07-0.08-0.07c1.52,1.88,1.73,3.83,0.35,5.88
	c-2.4,0.05-4.79,0.1-7.18,0.15C89.19,256.94,89.19,254.86,89.2,252.79z"/>
<path class="st68" d="M96.29,212.86c-0.01-48.08-0.02-96.17-0.03-144.25c0-1.83-0.08-3.65-0.12-5.48
	c12.66-0.03,25.32-0.09,37.97-0.09c91.78-0.01,183.56,0,275.33,0c2.16,0,4.33,0.05,6.49,0.08c-0.02,34.99-0.03,69.99-0.05,104.98
	c-1.19,1.06-2.65,1.3-4.16,1.34c-3.89,0.1-8.2-0.75-9.64,4.59c-0.16,0.6-1,0.93-1.64,1.01c-3.76,0.5-4.05,3.11-4.11,6.16
	c-0.05,2.16,0.64,4.79-2.17,6.03c-2.28-1.92-1.54-4.59-1.61-6.99c-0.08-2.6-0.63-4.58-3.61-5.06c-1.61-0.26-2.64-1.35-3.16-2.88
	c-0.6-1.76-1.84-2.68-3.64-2.99c-2.15-0.37-3.69-1.57-4.29-3.7c-1.19-4.19-4.62-2.9-7.44-3.13c-2.82-0.23-4.88,0.59-5.41,3.77
	c-0.27,1.62-1.41,2.67-3.04,2.93c-2.24,0.37-3.5,1.69-4.18,3.76c-0.27,0.8-0.85,1.72-1.64,1.75c-4.54,0.16-5.64,3.88-7.43,6.93
	c-3.79,1.4-6.93,1.18-8.29-3.37c-0.83-2.77-3.14-2.63-5.29-2.64c-4.2-0.02-8.32,0.27-10.51-4.68c-0.79-1.79-3.26-1.3-5.06-1.32
	c-7.49-0.07-14.99,0-22.49-0.04c-2.32-0.01-4.68,0.23-6.85-0.92c-1.64-4.72-4.49-7.2-9.92-6.21c-2.64,0.48-3.87,1.44-3.87,4.08
	c-0.01,4.19,0.4,8.52-5.47,9.53c-1.68,0.29-1.4,2.4-1.54,3.87c-0.23,2.42,0.48,5.04-1.44,7.12c-0.48,0.24-0.96,0.2-1.32-0.18
	c-1.26-1.31-0.61-4.46-3.48-4.11c-2.51,0.3-1.69,3.34-3.14,4.67c-0.46,0.35-0.96,0.59-1.52,0.76c-8.13,0.89-16.28,0.5-24.4,0.3
	c-4.82-0.12-5.72-1.76-4.64-6.84c2.26-2.77,5.45-1.88,8.34-2.01c5.03-0.23,5.52-0.8,5.73-5.28c0.19-4.21-2.01-4.94-5.55-4.88
	c-6.06,0.1-6.27,0.18-6.59,6.37c-0.09,1.82-0.04,3.67-1.38,5.16c-4.8,2.17-6.43,1.79-8.31-2.35c-0.75-1.65-1.58-2.87-3.39-3.28
	c-1.75-0.4-2.99-1.42-3.59-3.14c-0.62-1.79-1.99-2.55-3.72-2.91c-1.72-0.36-3.31-1.18-3.79-2.9c-0.98-3.48-3.43-3.99-6.53-3.93
	c-5.33,0.12-10.66-0.01-15.98,0.05c-1.64,0.02-4-0.31-4.5,1.35c-1.09,3.64-5.39,4.51-6.42,6.66c-2.44,5.12-9.96,4.23-10.87,10.53
	c-0.18,1.28-2.54,1.2-4.06,0.95c-2.01-0.65-3.42-1.92-4.03-4c-0.47-1.59-1.34-2.71-3.2-2.36c-1.06,0.2-1.9,0.8-1.71,2.02
	c0.25,1.7,1.73,1.78,3.02,2.04c1.46,0.29,2.98,0.43,3.84,1.93c0.59,5.34-0.19,6.64-5.09,6.73c-4.75,0.08-9.62,1.35-13.15-4.41
	c-1.59-2.59-5.72-3.9-7.34-7.4c-0.52-1.12-2.38-0.96-3.71-1c-3.16-0.09-6.32,0.03-9.48-0.06c-2.9-0.08-5.34,0.36-5.91,3.84
	c-0.1,0.64-0.41,1.59-0.97,1.66c-4.9,0.67-5.82,6.58-10.38,7.73c-2.29,0.58-2.16,2.72-2.2,4.52c-0.11,4.49,0.02,8.98-0.07,13.47
	c-0.04,2.12,0.29,4.38-1.44,6.12l-0.4,0L96.29,212.86z"/>
<path class="st69" d="M158.1,180.99c2.79,0.11,5.54,0.27,5.02-3.94c-0.37-3,1.73-3.15,3.88-2.99c2.51,0.18,2.97-1.29,4.32-3.23
	c2.43-3.5,7.4-5.05,8.87-9.76c8.66,0.01,17.31-0.02,25.97,0.05c1.84,0.02,1.94,1.58,1.87,2.93c-0.16,3.15,1.54,4.12,4.35,3.92
	c0.17-0.01,0.34,0.03,0.5,0c5.02-0.75,1.42,5.51,4.79,5.93c2.72,0.34,5.56-0.45,5.5,4.18c-0.06,5.22,4.57,1.88,6.87,2.96l-0.03-0.03
	c-0.86,5.16,1.51,6.4,6.38,6.16c7.92-0.39,15.87-0.07,23.81-0.04c1.65,1.95,1.36,4.34,1.27,6.58c-0.15,3.66,1.55,4.82,5.02,4.89
	c3.26,0.07,7.04-1.18,9.41,2.49c0.84,4.07,1.34,8.12-0.55,12.06c-1.97,1.59-4.35,1.37-6.64,1.39c-7.76,0.06-15.53-0.05-23.29,0.05
	c-5.21,0.07-5.69,0.59-5.82,5.65c-0.06,2.31,0.03,4.63-0.1,6.94c0.26,6.42,0.1,12.84,0.08,19.25c0,1.99-0.13,3.97-1.67,5.51
	c-14.93,0.67-29.85,0.65-44.78,0.01c-1.51-1.57-1.64-3.57-1.64-5.56c-0.01-6.46-0.17-12.91,0.08-19.36
	c-0.51-12.42-0.51-12.42-12.86-12.42c-24.48,0-48.96,0.02-73.44-0.02c-2.79,0-5.71,0.47-8.2-1.39c0,0,0.06-0.33,0.06-0.33
	c0.03-7.31,0.13-14.62,0.04-21.93c-0.03-2.59,0.48-4.19,3.52-3.92c1.25,0.11,3.18,0.31,3.15-1.5c-0.07-3.72,1.48-5.01,5.07-4.65
	c2.1,0.21,2.35-1.53,2.19-3.1c-0.35-3.31,1.45-3.86,4.22-3.76c3.98,0.15,7.97,0.09,11.96,0.02c3.59-0.06,6.91-0.54,6.98,4.99
	c0.05,3.99,5.73,0.07,6.52,3.31c0.66,2.69,0.49,5.36,4.46,4.75c1.46-0.22,3.01-0.22,4.47,0c4.81,0.72,7.34-0.81,6.43-6.07
	C156.77,180.45,157.43,180.48,158.1,180.99z"/>
<path class="st70" d="M237.89,251.95c0.07-8.32,0.13-16.65,0.2-24.97c1.91-1.76,4.31-1.58,6.62-1.58
	c54.93-0.03,109.86-0.04,164.79,0c2.14,0,4.36-0.17,6.23,1.28c0.07,7.16,0.01,14.33,0.25,21.48c0.11,3.22-1.31,4.05-4.18,3.87
	c-2.49-0.16-5-0.03-7.49-0.03C348.84,251.98,293.36,251.97,237.89,251.95z"/>
<path class="st71" d="M415.73,226.68c-2.16,0.08-4.31,0.23-6.47,0.23c-57.06,0.03-114.11,0.05-171.17,0.07
	c-0.73-13.81-0.73-13.79,12.66-13.81c8.09-0.02,16.17-0.1,24.26-0.16c4.77-2.86,10-1.12,15.02-1.47c21.45-0.24,42.9-0.04,64.35-0.11
	c7.92-0.03,7.93-0.09,8.03-8.12c0.04-2.96-0.46-6.01,0.97-8.83c0.37-0.57,0.89-0.79,1.56-0.66c2.51,3.18,1.4,6.93,1.49,10.44
	c0.19,7.14,0.16,7.22,7.09,7.23c1.97,0,3.94,0.01,5.91,0.05c10.3-0.29,20.59-0.1,30.88-0.1c2,0,4.01,0.12,5.57,1.66
	C415.82,217.63,415.78,222.16,415.73,226.68z"/>
<path class="st70" d="M192.96,226.93c0.05,8.34,0.11,16.69,0.16,25.03c-30.45,0.01-60.9-0.04-91.36,0.12
	c-3.78,0.02-4.92-1.15-4.76-4.84c0.29-6.81,0.15-13.64,0.19-20.46c1.67-1.41,3.71-1.36,5.7-1.36c27.97-0.05,55.95-0.05,83.92,0
	C188.96,225.41,191.18,225.32,192.96,226.93z"/>
<path d="M96.36,258.86c-0.12-1.96-0.23-3.92-0.35-5.88c34.48,0.06,68.95,0.2,103.43,0.17c70.29-0.05,140.58-0.14,210.88-0.38
	c4.92-0.02,6.78,1.34,5.56,6.18c-0.32,0.04-0.64,0.12-0.94,0.25c-2.16-0.06-4.32-0.17-6.48-0.17
	c-101.87-0.01-203.74-0.01-305.61-0.01C100.68,259.01,98.52,258.91,96.36,258.86z"/>
<path class="st71" d="M192.96,226.93c-31.92-0.05-63.84-0.11-95.77-0.16c-0.05-4.53-0.1-9.05-0.14-13.58
	c30.32-0.01,60.64,0.07,90.95-0.12c4.3-0.03,5.6,1.32,5.15,5.38C192.83,221.25,193,224.1,192.96,226.93z"/>
<path class="st69" d="M415.86,213.11c-12.24-0.04-24.48-0.08-36.72-0.11c-3.05-6.11-2.04-12.4-0.79-18.69
	c3.13-1.98,7.07-2.46,8.64-7.06c0.85-2.47,4.56-1.93,7.05-0.34c1.46-1.56,0.68-3.48,0.8-5.24c0.13-1.82-0.13-3.68,0.12-5.47
	c0.58-4.23,5.68-0.35,6.58-3.39c0.75-2.51,0.28-5.35,4.39-4.9c3.29,0.36,6.63,0.15,9.95,0.19
	C415.88,183.1,415.87,198.1,415.86,213.11z"/>
<path class="st66" d="M223.02,397.95c2.89-0.35,4.24,0.7,4.05,3.83c-0.21,3.44-0.21,6.91,0,10.35c0.2,3.14-1.18,4.17-4.06,3.81
	C223.01,409.94,223.01,403.94,223.02,397.95z"/>
<path class="st69" d="M364.18,193.98c-0.02,5.16-0.15,10.33,0,15.49c0.08,2.8-0.88,3.77-3.72,3.75
	c-23.48-0.14-46.96-0.15-70.44-0.21c-2.46-4.16-1.91-8.46-0.59-12.8c2.8-2.55,6.27-1.42,9.48-1.67c2.28-0.18,4.5-0.34,4.49-3.33
	c0-2.66,1.06-6.05-3.09-6.7c-4.12-0.64-4.89-3.42-4.77-6.85c0.11-3.2-0.42-5.54-4.11-6.84c-3.28-1.16-3.49-4.03-1.27-6.8
	c10.79-0.02,21.57-0.02,32.36-0.07c2.46-0.01,4.81-0.16,4.53,3.44c-0.18,2.3,1.35,2.7,3.23,2.66c2.32-0.05,4.65,0.12,6.97-0.03
	c3.11-0.21,4.74,0.35,4.89,4.19c0.2,5.1,4.57,1.86,6.96,2.69c1.24,2.78,2.73,5.18,6.32,5.17c0.97,0,2.13,0.75,2.19,1.72
	C357.84,192.01,361.42,192.52,364.18,193.98z"/>
<path class="st72" d="M290.16,168.02c-0.43,3.47-0.85,6.86,4.52,6.11c1.93-0.27,2.59,0.97,2.56,2.75c-0.04,1.98,0.12,3.98-0.03,5.95
	c-0.23,3.01,0.51,4.86,4.04,4.31c2.76-0.44,3.66,0.77,3.73,3.6c0.24,9.42,0.35,9.42-8.85,9.43c-1.98,0-3.97,0.05-5.95,0.08
	c-4.96,1.98-10.03,1.61-15.12,0.68c-3.65-1.62-7.5-0.6-11.24-0.69c-2.71-0.06-3.97-0.76-3.77-3.67c0.21-3.14,0.09-6.3,0.12-9.44
	c0,0-0.13,0-0.13,0c2.29-1.93,4.65-1.8,7.06-0.27c1.63-2.79,0.66-5.82,0.65-8.72c-0.01-2.89,0.71-4.49,3.9-4.08
	c3.2,0.41,3.32-1.59,3.37-4.01c0.19-9.07,0.29-8.53,9.21-9.23C290.75,160.31,290.17,164.02,290.16,168.02z"/>
<path class="st72" d="M364.18,193.98c-3.29-0.54-8.37,1.49-7.3-5.25c0.19-1.18-1.06-1.7-2.09-1.52c-5.36,0.96-6.05-2.19-5.7-6.32
	c-0.36-4.25,0.31-6.47,5.73-7.47c2.51-0.46,5.19-5.69,9.15-7.47c1.11-0.5-0.98-4.47,1.94-4.77c3.94-0.41,7.96-0.07,11.95,0.07
	c0.39,0.01,1.11,0.96,1.06,1.42c-0.42,4.23,1.56,5.63,5.57,5.24c4.58-0.45,0.19,6.78,5.01,6.11c5.19-0.72,4.57,2.73,4.52,5.91
	c-0.03,2.33,0.01,4.66,0.02,6.98c-3.16,0.73-8.38-1.49-7.28,5.29c0.24,1.46-1.34,1.57-2.53,1.62c-1.65,0.07-3.29,0.19-4.94,0.29
	c-4.78,2.13-9.56,2.4-14.33-0.06C364.7,194.02,364.44,194,364.18,193.98z"/>
<path class="st73" d="M185.93,76.85c0.25,2.71,0.65,6.33-5,5.52c-2.18-0.31-2.84,1.34-2.67,3.24c0.24,2.64-0.96,3.43-3.49,3.43
	c-2.59,0-4.21-0.48-3.88-3.53c0.3-2.81-1.5-3.44-3.77-3.2c-3.08,0.33-4.24-0.98-3.95-3.99c0.16-1.65,0.04-3.32,0.03-4.98
	c-0.01-2.17-0.39-4.42,3.09-4.29c2.66,0.1,5.16-0.15,4.64,3.74c-0.32,2.38,0.85,3.39,3.18,3.13c1.66-0.18,4.23,0.71,4-2.22
	c-0.29-3.8,1.13-4.87,4.83-4.68c4.39,0.23,2.59,3.3,2.98,5.4C186,74.92,185.93,75.44,185.93,76.85z"/>
<path class="st73" d="M156.01,76.92c0.19,2.54,0.77,6.29-4.95,5.48c-2.08-0.29-2.37,1.44-2.26,3.04c0.2,2.96-1.35,3.57-3.98,3.61
	c-2.76,0.05-4.1-0.75-3.73-3.66c0.32-2.47-1.02-3.39-3.25-3.06c-3.45,0.51-4.36-1.44-4.44-4.31c-0.05-1.66,0-3.33-0.09-5
	c-0.15-2.6,0.65-4.02,3.63-3.99c2.72,0.03,4.64,0.33,4.17,3.73c-0.33,2.36,0.77,3.41,3.14,3.18c1.71-0.17,4.09,0.58,4-2.33
	c-0.12-3.83,1.7-4.88,5.23-4.54c4.06,0.39,1.99,3.41,2.5,5.32C156.12,74.87,156.01,75.4,156.01,76.92z"/>
<path class="st74" d="M126.09,76.95c0.35,2.85,0.53,6.31-5.09,5.45c-2.14-0.33-2.21,1.66-2.06,3.16c0.31,3.12-1.42,3.46-3.95,3.5
	c-2.67,0.04-4.18-0.61-3.8-3.6c0.3-2.4-0.91-3.44-3.21-3.12c-3.51,0.48-4.32-1.33-4.04-4.36c0.15-1.65,0.06-3.32,0.02-4.99
	c-0.06-2.12-0.1-3.97,2.98-3.91c2.61,0.05,4.74,0.13,4.27,3.62c-0.37,2.75,1.11,3.43,3.55,3.29c2.05-0.12,4.36,0.1,4.06-2.9
	c-0.36-3.56,1.41-4.06,4.42-4.02c3.67,0.05,2.69,2.54,2.83,4.51C126.14,74.4,126.09,75.24,126.09,76.95z"/>
<path class="st69" d="M401.35,161.12c-2.33-0.62-5.95,1.26-6.82-1.24c-1.08-3.1-0.41-6.84-0.35-10.3c0.02-1.22,1.14-1.49,2.19-1.52
	c1.32-0.03,2.65-0.06,3.97-0.04c9.76,0.17,8.17-1.48,8.7,8.22C409.43,163.3,404.47,160.35,401.35,161.12z"/>
<path class="st75" d="M380.08,69.09c1.92,0.61,5.5-1.46,6.37,1.31c1,3.17,0.39,6.9,0.2,10.38c-0.08,1.48-1.66,1.37-2.8,1.39
	c-2.16,0.04-4.36-0.23-6.49,0.07c-4.47,0.62-5.75-1.14-5.53-5.54C372.26,67.91,370.91,69.23,380.08,69.09z"/>
<path class="st76" d="M230.03,181.04c0.01-1.82,0.02-3.65,0.03-5.47c0.09-8.59-0.98-7.61,7.79-7.54c2.31,0.02,5.86-1.43,6.71,1.27
	c1,3.16,0.46,6.88,0.17,10.32c-0.14,1.71-2.05,1.32-3.3,1.34c-3.81,0.06-7.63,0.04-11.44,0.06
	C230,181.01,230.03,181.04,230.03,181.04z"/>
<path class="st77" d="M402.12,69.09c1.92,0.6,5.51-1.44,6.38,1.27c1.02,3.16,0.35,6.88,0.26,10.36c-0.03,1.26-1.24,1.4-2.25,1.43
	c-1.83,0.04-3.66,0.04-5.48,0.04c-7,0-7.01,0-6.98-6.92C394.07,68.05,393.55,69.2,402.12,69.09z"/>
<path class="st78" d="M356.78,82.19c-1.32,0-2.66-0.1-3.97,0.02c-2.81,0.26-4.07-0.97-3.69-3.73c0.41-3-1.65-7.23,1.4-8.75
	c3.58-1.78,8.1-0.7,12.22-0.4c0.94,0.07,1.26,0.98,1.31,1.84c0.06,1.16,0.08,2.32,0.07,3.47C364.04,83.13,364.93,82.1,356.78,82.19z
	"/>
<path class="st76" d="M112.05,154.97c1.94,0.53,5.51-1.38,6.45,1.2c1.07,2.93,0.48,6.54,0.29,9.84c-0.09,1.52-1.62,1.93-3.05,1.95
	c-1.49,0.01-2.99,0.02-4.49,0.02c-7.22,0-7.22,0-7.2-7.21C104.06,154.97,104.06,154.97,112.05,154.97z"/>
<path class="st79" d="M158.1,180.99c-0.66,0.01-1.32,0.02-1.99,0.02c-1.65-0.01-3.31-0.01-4.96-0.05c-2.36-0.06-3.08-1.5-3.04-3.63
	c0.04-2.26,1.15-3.43,3.38-3.28c1.77,0.12,4.42-0.97,4.48,2.26C156.01,178.3,156.47,179.85,158.1,180.99z"/>
<path class="st80" d="M338.29,161.06c2.4-0.29,3.73,0.37,3.75,3.16c0.02,2.73-0.81,3.88-3.68,3.82c-2.58-0.05-3.5-0.98-3.48-3.53
	C334.89,162.04,335.61,160.66,338.29,161.06z"/>
<path class="st81" d="M267.12,186.86c-2.35,0.09-4.71,0.18-7.06,0.27c0.58-2.28-1.87-5.88,3.1-6.21
	C268.33,180.57,266.76,184.25,267.12,186.86z"/>
<path class="st82" d="M275.07,200.93c4.97-1.65,10.07-0.63,15.12-0.68c-0.06,4.26-0.11,8.51-0.17,12.77c-5,0-10,0-15.01,0
	C275.03,208.98,275.05,204.96,275.07,200.93z"/>
<path class="st83" d="M364.96,194.05c4.78,0.02,9.55,0.04,14.33,0.06c-0.05,6.3-0.1,12.59-0.15,18.89
	c-14.19,0.41-14.2,0.41-14.19-13.47C364.95,197.69,364.96,195.87,364.96,194.05z"/>
</svg>
